<?xml version="1.0" encoding="UTF-8" standalone="no"?>
<svg
   id="Capa_2"
   data-name="Capa 2"
   viewBox="0 0 36084.803 1684.2816"
   version="1.1"
   width="36084.805"
   height="1684.2816"
   xmlns="http://www.w3.org/2000/svg"
   xmlns:svg="http://www.w3.org/2000/svg">
  <defs
     id="defs8">
    <style
       id="style1">
      .cls-1 {
        fill: #000;
      }

      .cls-1, .cls-2, .cls-3 {
        stroke-width: 0px;
      }

      .cls-2 {
        fill: url(#Degradado_sin_nombre_20);
      }

      .cls-3 {
        fill: #fff;
      }
    </style>
    <linearGradient
       id="Degradado_sin_nombre_20"
       data-name="Degradado sin nombre 20"
       x1="0"
       y1="20.52"
       x2="40.98"
       y2="20.52"
       gradientUnits="userSpaceOnUse">
      <stop
         offset="0"
         stop-color="#b56fff"
         id="stop1" />
      <stop
         offset=".1"
         stop-color="#c871d9"
         id="stop2" />
      <stop
         offset=".2"
         stop-color="#d972b8"
         id="stop3" />
      <stop
         offset=".32"
         stop-color="#e6749d"
         id="stop4" />
      <stop
         offset=".44"
         stop-color="#f17589"
         id="stop5" />
      <stop
         offset=".58"
         stop-color="#f9767a"
         id="stop6" />
      <stop
         offset=".74"
         stop-color="#fd7671"
         id="stop7" />
      <stop
         offset="1"
         stop-color="#ff776f"
         id="stop8" />
    </linearGradient>
  </defs>
  <g
     id="Capa_1-2"
     data-name="Capa 1">
    <g
       id="g23">
      <g
         id="g11">
        <path
           class="cls-2"
           d="M 20.52,41.04 C 9.21,41.04 0,31.84 0,20.52 0,9.2 9.21,0 20.52,0 c 3.38,0 5.83,0.81 7.49,2.48 3.18,3.19 3.16,9.19 3.13,16.14 v 1.9 c 0,0 0,1.9 0,1.9 0.02,6.95 0.05,12.95 -3.13,16.14 -1.67,1.67 -4.12,2.48 -7.49,2.48 z m 17.3,-17.36 c -1.74,0 -3.16,-1.42 -3.16,-3.16 0,-1.74 1.42,-3.16 3.16,-3.16 1.74,0 3.16,1.42 3.16,3.16 0,1.74 -1.42,3.16 -3.16,3.16 z"
           id="path8"
           style="fill:url(#Degradado_sin_nombre_20)" />
        <g
           id="g10">
          <path
             class="cls-3"
             d="m 10.88,12.13 c -0.35,0 -0.65,-0.12 -0.89,-0.36 -0.25,-0.24 -0.37,-0.54 -0.37,-0.91 0,-0.37 0.12,-0.67 0.37,-0.91 0.25,-0.24 0.54,-0.36 0.89,-0.36 0.35,0 0.66,0.12 0.91,0.36 0.25,0.24 0.38,0.55 0.38,0.91 0,0.36 -0.12,0.65 -0.38,0.89 -0.25,0.25 -0.55,0.37 -0.91,0.37 z m 0.95,11.89 c 0,1.12 0.43,1.68 1.3,1.68 0.07,0 0.15,0 0.22,0 0.39,-0.02 0.72,0.3 0.72,0.7 v 0.36 c 0,0.35 -0.25,0.64 -0.59,0.69 0,0 0,0 0,0 -0.25,0.04 -0.51,0.05 -0.79,0.05 -0.39,0 -0.75,-0.06 -1.1,-0.19 C 11.25,27.18 10.95,26.99 10.7,26.73 10.45,26.47 10.25,26.14 10.1,25.75 9.95,25.36 9.88,24.9 9.88,24.37 v -8.16 c 0,-0.54 0.44,-0.98 0.98,-0.98 v 0 c 0.54,0 0.98,0.44 0.98,0.98 v 7.81 z"
             id="path9" />
          <path
             class="cls-3"
             d="m 23.94,27.42 v 0 c -0.54,0 -0.98,-0.44 -0.98,-0.98 v -0.93 h -0.05 c -0.85,1.46 -2.1,2.19 -3.75,2.19 -1.21,0 -2.17,-0.32 -2.85,-0.96 -0.69,-0.64 -1.03,-1.5 -1.03,-2.56 0,-2.28 1.34,-3.6 4.03,-3.98 l 3.66,-0.51 c 0,-2.07 -0.84,-3.11 -2.51,-3.11 -1,0 -1.93,0.23 -2.79,0.69 -0.54,0.29 -1.18,-0.12 -1.18,-0.73 v 0 c 0,-0.29 0.15,-0.56 0.4,-0.7 1.1,-0.6 2.35,-0.91 3.74,-0.91 2.87,0 4.3,1.52 4.3,4.55 v 6.95 c 0,0.54 -0.44,0.98 -0.98,0.98 z m -0.97,-6.16 -2.94,0.4 c -0.91,0.13 -1.59,0.35 -2.05,0.67 -0.46,0.32 -0.69,0.89 -0.69,1.71 0,0.6 0.21,1.08 0.64,1.46 0.42,0.38 0.99,0.57 1.7,0.57 0.97,0 1.77,-0.34 2.4,-1.02 0.63,-0.68 0.95,-1.54 0.95,-2.58 v -1.21 z"
             id="path10" />
        </g>
      </g>
      <g
         id="g22"
         style="fill:#ffffff">
        <path
           class="cls-1"
           d="m 50.57,27.52 c -0.39,0 -0.77,-0.04 -1.15,-0.13 -0.37,-0.09 -0.68,-0.19 -0.91,-0.32 v 5.56 H 45.08 V 16.04 h 2.57 l 0.33,1.19 c 0.45,-0.45 0.98,-0.81 1.58,-1.06 0.6,-0.26 1.26,-0.39 1.97,-0.39 0.71,0 1.37,0.13 1.96,0.4 0.59,0.27 1.09,0.64 1.5,1.13 0.4,0.49 0.72,1.09 0.95,1.79 0.23,0.7 0.34,1.48 0.34,2.34 0,0.97 -0.15,1.83 -0.44,2.58 -0.3,0.76 -0.7,1.39 -1.21,1.9 -0.51,0.51 -1.12,0.91 -1.81,1.18 -0.69,0.27 -1.44,0.41 -2.23,0.41 z m -0.02,-9.16 c -0.47,0 -0.88,0.11 -1.24,0.33 -0.36,0.22 -0.62,0.44 -0.79,0.65 v 5.14 c 0.39,0.34 0.93,0.51 1.61,0.51 0.31,0 0.62,-0.06 0.93,-0.19 0.31,-0.12 0.59,-0.32 0.83,-0.6 0.24,-0.27 0.44,-0.63 0.6,-1.06 0.16,-0.44 0.23,-0.97 0.23,-1.61 0,-0.89 -0.19,-1.64 -0.56,-2.25 -0.37,-0.62 -0.91,-0.92 -1.61,-0.92 z"
           id="path11"
           style="fill:#ffffff" />
        <path
           class="cls-1"
           d="m 58.61,17.03 c 0.64,-0.37 1.36,-0.67 2.16,-0.9 0.8,-0.23 1.62,-0.34 2.46,-0.34 1.39,0 2.5,0.33 3.34,1 0.84,0.67 1.26,1.74 1.26,3.2 v 7.26 h -2.64 l -0.3,-1.12 H 64.8 c -0.31,0.41 -0.74,0.74 -1.3,0.99 -0.55,0.26 -1.2,0.39 -1.95,0.39 -0.64,0 -1.2,-0.09 -1.67,-0.28 C 59.4,27.04 59.01,26.79 58.7,26.48 58.39,26.17 58.15,25.8 57.99,25.37 57.83,24.94 57.74,24.49 57.74,24 c 0,-0.65 0.14,-1.21 0.43,-1.68 0.29,-0.47 0.68,-0.85 1.17,-1.14 0.49,-0.3 1.07,-0.51 1.73,-0.65 0.66,-0.14 1.37,-0.21 2.11,-0.21 h 1.17 v -0.61 c 0,-0.42 -0.15,-0.74 -0.44,-0.97 -0.29,-0.23 -0.72,-0.34 -1.26,-0.34 -0.47,0 -0.93,0.07 -1.38,0.21 -0.45,0.14 -0.95,0.37 -1.5,0.68 L 58.6,17.02 Z m 5.77,5.4 -0.77,0.02 c -0.44,0.02 -0.8,0.06 -1.1,0.14 -0.3,0.08 -0.53,0.17 -0.71,0.29 -0.18,0.12 -0.31,0.26 -0.39,0.42 -0.08,0.16 -0.12,0.33 -0.12,0.5 0,0.48 0.14,0.81 0.43,0.99 0.29,0.18 0.62,0.27 0.99,0.27 0.37,0 0.71,-0.11 1.02,-0.33 0.3,-0.22 0.52,-0.46 0.64,-0.72 v -1.59 z"
           id="path12"
           style="fill:#ffffff" />
        <path
           class="cls-1"
           d="M 70.36,27.26 V 16.05 h 2.71 l 0.35,1.96 c 0.14,-0.28 0.31,-0.56 0.51,-0.83 0.2,-0.27 0.44,-0.51 0.72,-0.71 0.28,-0.2 0.6,-0.37 0.97,-0.49 0.37,-0.12 0.77,-0.19 1.23,-0.19 0.34,0 0.66,0.04 0.95,0.13 0.29,0.09 0.52,0.18 0.69,0.29 l -0.56,2.69 c -0.17,-0.09 -0.39,-0.18 -0.65,-0.26 -0.27,-0.08 -0.59,-0.12 -0.98,-0.12 -0.72,0 -1.31,0.23 -1.79,0.7 -0.48,0.47 -0.71,1.28 -0.71,2.43 v 5.61 h -3.43 z"
           id="path13"
           style="fill:#ffffff" />
        <path
           class="cls-1"
           d="m 79.47,17.03 c 0.64,-0.37 1.36,-0.67 2.16,-0.9 0.8,-0.23 1.62,-0.34 2.46,-0.34 1.39,0 2.5,0.33 3.34,1 0.84,0.67 1.26,1.74 1.26,3.2 v 7.26 h -2.64 l -0.3,-1.12 h -0.09 c -0.31,0.41 -0.74,0.74 -1.3,0.99 -0.55,0.26 -1.2,0.39 -1.95,0.39 -0.64,0 -1.2,-0.09 -1.67,-0.28 C 80.26,27.04 79.87,26.79 79.56,26.48 79.25,26.17 79.01,25.8 78.85,25.37 78.69,24.94 78.6,24.49 78.6,24 c 0,-0.65 0.14,-1.21 0.43,-1.68 0.29,-0.47 0.68,-0.85 1.17,-1.14 0.49,-0.3 1.07,-0.51 1.73,-0.65 0.66,-0.14 1.37,-0.21 2.11,-0.21 h 1.17 v -0.61 c 0,-0.42 -0.15,-0.74 -0.44,-0.97 -0.29,-0.23 -0.72,-0.34 -1.26,-0.34 -0.47,0 -0.93,0.07 -1.38,0.21 -0.45,0.14 -0.95,0.37 -1.5,0.68 l -1.17,-2.27 z m 5.77,5.4 -0.77,0.02 c -0.44,0.02 -0.8,0.06 -1.1,0.14 -0.3,0.08 -0.53,0.17 -0.71,0.29 -0.18,0.12 -0.31,0.26 -0.39,0.42 -0.08,0.16 -0.12,0.33 -0.12,0.5 0,0.48 0.14,0.81 0.43,0.99 0.29,0.18 0.62,0.27 0.99,0.27 0.37,0 0.71,-0.11 1.02,-0.33 0.3,-0.22 0.52,-0.46 0.64,-0.72 v -1.59 z"
           id="path14"
           style="fill:#ffffff" />
        <path
           class="cls-1"
           d="m 96.85,17.03 c 0.64,-0.37 1.36,-0.67 2.16,-0.9 0.8,-0.23 1.62,-0.34 2.46,-0.34 1.39,0 2.5,0.33 3.34,1 0.84,0.67 1.26,1.74 1.26,3.2 v 7.26 h -2.64 l -0.3,-1.12 h -0.09 c -0.31,0.41 -0.74,0.74 -1.3,0.99 -0.55,0.26 -1.2,0.39 -1.95,0.39 -0.64,0 -1.2,-0.09 -1.67,-0.28 -0.48,-0.19 -0.87,-0.44 -1.18,-0.75 -0.31,-0.31 -0.55,-0.68 -0.71,-1.11 -0.16,-0.43 -0.25,-0.88 -0.25,-1.37 0,-0.65 0.14,-1.21 0.43,-1.68 0.29,-0.47 0.68,-0.85 1.17,-1.14 0.49,-0.3 1.07,-0.51 1.73,-0.65 0.66,-0.14 1.37,-0.21 2.11,-0.21 h 1.17 v -0.61 c 0,-0.42 -0.15,-0.74 -0.44,-0.97 -0.29,-0.23 -0.72,-0.34 -1.26,-0.34 -0.47,0 -0.93,0.07 -1.38,0.21 -0.45,0.14 -0.95,0.37 -1.5,0.68 l -1.17,-2.27 z m 5.77,5.4 -0.77,0.02 c -0.44,0.02 -0.8,0.06 -1.1,0.14 -0.3,0.08 -0.53,0.17 -0.71,0.29 -0.18,0.12 -0.31,0.26 -0.39,0.42 -0.08,0.16 -0.12,0.33 -0.12,0.5 0,0.48 0.14,0.81 0.43,0.99 0.29,0.18 0.62,0.27 0.99,0.27 0.37,0 0.71,-0.11 1.02,-0.33 0.3,-0.22 0.52,-0.46 0.64,-0.72 v -1.59 z"
           id="path15"
           style="fill:#ffffff" />
        <path
           class="cls-1"
           d="m 114.09,27.52 c -0.39,0 -0.77,-0.04 -1.15,-0.13 -0.37,-0.09 -0.68,-0.19 -0.91,-0.32 v 5.56 H 108.6 V 16.04 h 2.57 l 0.33,1.19 c 0.45,-0.45 0.98,-0.81 1.58,-1.06 0.6,-0.26 1.26,-0.39 1.97,-0.39 0.71,0 1.37,0.13 1.96,0.4 0.59,0.27 1.09,0.64 1.5,1.13 0.4,0.49 0.72,1.09 0.95,1.79 0.23,0.7 0.34,1.48 0.34,2.34 0,0.97 -0.15,1.83 -0.44,2.58 -0.3,0.76 -0.7,1.39 -1.21,1.9 -0.51,0.51 -1.12,0.91 -1.81,1.18 -0.69,0.27 -1.44,0.41 -2.23,0.41 z m -0.02,-9.16 c -0.47,0 -0.88,0.11 -1.24,0.33 -0.36,0.22 -0.62,0.44 -0.79,0.65 v 5.14 c 0.39,0.34 0.93,0.51 1.61,0.51 0.31,0 0.62,-0.06 0.93,-0.19 0.31,-0.12 0.59,-0.32 0.83,-0.6 0.24,-0.27 0.44,-0.63 0.6,-1.06 0.16,-0.44 0.23,-0.97 0.23,-1.61 0,-0.89 -0.19,-1.64 -0.56,-2.25 -0.37,-0.62 -0.91,-0.92 -1.61,-0.92 z"
           id="path16"
           style="fill:#ffffff" />
        <path
           class="cls-1"
           d="M 121.92,27.26 V 16.05 h 2.71 l 0.35,1.96 c 0.14,-0.28 0.31,-0.56 0.51,-0.83 0.2,-0.27 0.44,-0.51 0.72,-0.71 0.28,-0.2 0.6,-0.37 0.97,-0.49 0.37,-0.12 0.77,-0.19 1.23,-0.19 0.34,0 0.66,0.04 0.95,0.13 0.29,0.09 0.52,0.18 0.69,0.29 l -0.56,2.69 c -0.17,-0.09 -0.39,-0.18 -0.65,-0.26 -0.27,-0.08 -0.59,-0.12 -0.98,-0.12 -0.72,0 -1.31,0.23 -1.79,0.7 -0.48,0.47 -0.71,1.28 -0.71,2.43 v 5.61 h -3.43 z"
           id="path17"
           style="fill:#ffffff" />
        <path
           class="cls-1"
           d="m 140.7,22.66 h -7.24 v 0.09 c 0,0.78 0.3,1.35 0.91,1.71 0.61,0.36 1.37,0.54 2.29,0.54 0.64,0 1.2,-0.06 1.68,-0.19 0.48,-0.12 0.89,-0.27 1.21,-0.44 l 0.63,2.38 c -0.42,0.2 -0.95,0.38 -1.6,0.54 -0.65,0.16 -1.44,0.23 -2.37,0.23 -0.84,0 -1.64,-0.11 -2.39,-0.34 -0.75,-0.23 -1.42,-0.57 -1.99,-1.04 -0.57,-0.47 -1.02,-1.06 -1.35,-1.78 -0.34,-0.72 -0.5,-1.57 -0.5,-2.57 0,-0.89 0.14,-1.7 0.41,-2.44 0.27,-0.74 0.66,-1.37 1.16,-1.9 0.5,-0.53 1.09,-0.94 1.79,-1.23 0.69,-0.29 1.46,-0.43 2.3,-0.43 1.54,0 2.77,0.47 3.69,1.4 0.92,0.93 1.38,2.27 1.38,4 v 1.47 z m -3.53,-2.36 c 0,-0.26 -0.03,-0.52 -0.09,-0.77 -0.06,-0.25 -0.16,-0.47 -0.29,-0.67 -0.13,-0.19 -0.3,-0.35 -0.51,-0.47 -0.21,-0.12 -0.46,-0.17 -0.76,-0.17 -0.54,0 -1,0.19 -1.35,0.57 -0.36,0.38 -0.57,0.9 -0.63,1.55 l 3.64,-0.05 z"
           id="path18"
           style="fill:#ffffff" />
        <path
           class="cls-1"
           d="m 146.28,27.26 h -3.46 V 16.05 h 2.69 l 0.4,1.4 c 0.5,-0.51 1.06,-0.92 1.68,-1.21 0.62,-0.29 1.3,-0.44 2.03,-0.44 1.26,0 2.23,0.34 2.9,1.03 0.67,0.69 1,1.69 1,3.01 v 7.43 h -3.46 v -7.08 c 0,-0.54 -0.13,-0.98 -0.39,-1.3 -0.26,-0.32 -0.63,-0.48 -1.13,-0.48 -0.37,0 -0.77,0.11 -1.18,0.33 -0.41,0.22 -0.77,0.51 -1.09,0.86 v 7.66 z"
           id="path19"
           style="fill:#ffffff" />
        <path
           class="cls-1"
           d="m 163.38,10.56 h 3.46 v 16.7 h -2.38 l -0.35,-1.21 h -0.12 c -0.22,0.34 -0.6,0.67 -1.13,0.99 -0.54,0.32 -1.24,0.48 -2.11,0.48 -0.73,0 -1.41,-0.14 -2.03,-0.41 -0.62,-0.27 -1.16,-0.66 -1.61,-1.17 -0.45,-0.51 -0.81,-1.12 -1.06,-1.84 -0.26,-0.72 -0.39,-1.54 -0.39,-2.44 0,-0.9 0.12,-1.69 0.35,-2.42 0.23,-0.72 0.57,-1.34 1.02,-1.85 0.44,-0.51 0.99,-0.9 1.65,-1.18 0.65,-0.28 1.39,-0.42 2.22,-0.42 0.51,0 1,0.07 1.46,0.22 0.46,0.15 0.81,0.33 1.04,0.55 v -6 z m 0,8.53 c -0.14,-0.19 -0.36,-0.37 -0.65,-0.54 -0.3,-0.17 -0.62,-0.26 -0.98,-0.26 -0.36,0 -0.69,0.06 -1,0.18 -0.31,0.12 -0.59,0.31 -0.83,0.57 -0.24,0.26 -0.43,0.6 -0.57,1.02 -0.14,0.41 -0.21,0.92 -0.21,1.53 0,1.17 0.23,2.03 0.69,2.58 0.46,0.55 1.05,0.83 1.79,0.83 0.45,0 0.83,-0.12 1.13,-0.35 0.3,-0.23 0.52,-0.48 0.64,-0.75 v -4.81 z"
           id="path20"
           style="fill:#ffffff" />
        <path
           class="cls-1"
           d="m 179.71,22.66 h -7.24 v 0.09 c 0,0.78 0.3,1.35 0.91,1.71 0.61,0.36 1.37,0.54 2.29,0.54 0.64,0 1.2,-0.06 1.68,-0.19 0.48,-0.12 0.89,-0.27 1.21,-0.44 l 0.63,2.38 c -0.42,0.2 -0.95,0.38 -1.6,0.54 -0.65,0.16 -1.44,0.23 -2.37,0.23 -0.84,0 -1.64,-0.11 -2.39,-0.34 -0.75,-0.23 -1.42,-0.57 -1.99,-1.04 -0.57,-0.47 -1.02,-1.06 -1.35,-1.78 -0.34,-0.72 -0.5,-1.57 -0.5,-2.57 0,-0.89 0.14,-1.7 0.41,-2.44 0.27,-0.74 0.66,-1.37 1.16,-1.9 0.5,-0.53 1.09,-0.94 1.79,-1.23 0.69,-0.29 1.46,-0.43 2.3,-0.43 1.54,0 2.77,0.47 3.69,1.4 0.92,0.93 1.38,2.27 1.38,4 v 1.47 z m -3.53,-2.36 c 0,-0.26 -0.03,-0.52 -0.09,-0.77 -0.06,-0.25 -0.16,-0.47 -0.29,-0.67 -0.13,-0.19 -0.3,-0.35 -0.51,-0.47 -0.21,-0.12 -0.46,-0.17 -0.76,-0.17 -0.54,0 -1,0.19 -1.35,0.57 -0.36,0.38 -0.57,0.9 -0.63,1.55 l 3.64,-0.05 z"
           id="path21"
           style="fill:#ffffff" />
        <path
           class="cls-1"
           d="M 181.83,27.26 V 16.05 h 2.71 l 0.35,1.96 c 0.14,-0.28 0.31,-0.56 0.51,-0.83 0.2,-0.27 0.44,-0.51 0.72,-0.71 0.28,-0.2 0.6,-0.37 0.97,-0.49 0.37,-0.12 0.77,-0.19 1.23,-0.19 0.34,0 0.66,0.04 0.95,0.13 0.29,0.09 0.52,0.18 0.69,0.29 l -0.56,2.69 c -0.17,-0.09 -0.39,-0.18 -0.65,-0.26 -0.27,-0.08 -0.59,-0.12 -0.98,-0.12 -0.72,0 -1.31,0.23 -1.79,0.7 -0.48,0.47 -0.71,1.28 -0.71,2.43 v 5.61 h -3.43 z"
           id="path22"
           style="fill:#ffffff" />
      </g>
    </g>
  </g>
</svg>
